<svg viewBox="0 0 48 48" fill="none" xmlns="http://www.w3.org/2000/svg">
  <defs>
    <linearGradient id="auraBg" x1="24" y1="4" x2="24" y2="44" gradientUnits="userSpaceOnUse">
      <stop stop-color="#c9945f"/>
      <stop offset="1" stop-color="#8a5d3b"/>
    </linearGradient>
    <radialGradient id="auraGlow" cx="0" cy="0" r="1" gradientUnits="userSpaceOnUse"
      gradientTransform="translate(24 10.5) rotate(90) scale(4.5 5.5)">
      <stop stop-color="#fff4d8" stop-opacity="0.55"/>
      <stop offset="1" stop-color="#fff4d8" stop-opacity="0"/>
    </radialGradient>
  </defs>
  <rect x="4" y="4" width="40" height="40" rx="10" fill="url(#auraBg)"/>
  <ellipse cx="24" cy="10.5" rx="4.5" ry="5.5" fill="url(#auraGlow)"/>
  <circle cx="24" cy="10.5" r="1.6" fill="#fffaf0"/>
  <path d="M23 12.5 L12.2 35 Q11.7 36 12.7 36.3 L17.2 36.3 Q18.2 36.3 18.7 35.3 L21.2 28.5 L23 28.5 Z" fill="#fffdf8"/>
  <path d="M25 12.5 L35.8 35 Q36.3 36 35.3 36.3 L30.8 36.3 Q29.8 36.3 29.3 35.3 L26.8 28.5 L25 28.5 Z" fill="#fffdf8" fill-opacity="0.85"/>
  <path d="M21.8 27 L24 23.2 L26.2 27 Z" fill="#9a6a43"/>
</svg>
